HIERARCHY
ROOT Hips
{
    OFFSET 0.000000 0.000000 0.000000
    CHANNELS 6 Xposition Yposition Zposition Zrotation Xrotation Yrotation
    JOINT Spine
    {
        OFFSET -0.000000 7.305679 0.000000
        CHANNELS 3 Zrotation Xrotation Yrotation
        JOINT Spine1
        {
            OFFSET -0.000000 20.356625 0.000000
            CHANNELS 3 Zrotation Xrotation Yrotation
            JOINT Neck
            {
                OFFSET -0.000000 22.138498 0.000000
                CHANNELS 3 Zrotation Xrotation Yrotation
                JOINT Head
                {
                    OFFSET -0.000000 13.809516 1.781873
                    CHANNELS 3 Zrotation Xrotation Yrotation
                    End Site
                    {
                        OFFSET -0.000000 17.818729 0.000000
                    }
                }
            }
            JOINT LeftShoulder
            {
                OFFSET 3.599131 17.989975 0.023592
                CHANNELS 3 Zrotation Xrotation Yrotation
                JOINT LeftArm
                {
                    OFFSET 12.560995 0.000000 0.000000
                    CHANNELS 3 Zrotation Xrotation Yrotation
                    JOINT LeftForeArm
                    {
                        OFFSET 22.903347 0.000000 0.000000
                        CHANNELS 3 Zrotation Xrotation Yrotation
                        JOINT LeftHand
                        {
                            OFFSET 21.865294 0.000000 0.000000
                            CHANNELS 3 Zrotation Xrotation Yrotation
                            JOINT LeftHandThumb1
                            {
                                OFFSET 1.853706 -2.106484 2.949078
                                CHANNELS 3 Zrotation Xrotation Yrotation
                                JOINT LeftHandThumb2
                                {
                                    OFFSET 2.049154 0.000000 1.336405
                                    CHANNELS 3 Zrotation Xrotation Yrotation
                                    JOINT LeftHandThumb3
                                    {
                                        OFFSET 2.672809 0.000000 0.000000
                                        CHANNELS 3 Zrotation Xrotation Yrotation
                                        End Site
                                        {
                                            OFFSET 2.381303 0.000000 0.000000
                                        }
                                    }
                                }
                            }
                            JOINT LeftHandIndex1
                            {
                                OFFSET 7.583345 0.000000 2.949078
                                CHANNELS 3 Zrotation Xrotation Yrotation
                                JOINT LeftHandIndex2
                                {
                                    OFFSET 4.454682 0.000000 0.000000
                                    CHANNELS 3 Zrotation Xrotation Yrotation
                                    JOINT LeftHandIndex3
                                    {
                                        OFFSET 2.227341 0.000000 0.000000
                                        CHANNELS 3 Zrotation Xrotation Yrotation
                                        End Site
                                        {
                                            OFFSET 1.984419 0.000000 0.000000
                                        }
                                    }
                                }
                            }
                            JOINT LeftHandMiddle1
                            {
                                OFFSET 7.583345 0.000000 0.977409
                                CHANNELS 3 Zrotation Xrotation Yrotation
                                JOINT LeftHandMiddle2
                                {
                                    OFFSET 4.900151 0.000000 0.000000
                                    CHANNELS 3 Zrotation Xrotation Yrotation
                                    JOINT LeftHandMiddle3
                                    {
                                        OFFSET 2.672809 0.000000 0.000000
                                        CHANNELS 3 Zrotation Xrotation Yrotation
                                        End Site
                                        {
                                            OFFSET 2.381303 0.000000 0.000000
                                        }
                                    }
                                }
                            }
                            JOINT LeftHandRing1
                            {
                                OFFSET 7.162047 0.000000 -0.977409
                                CHANNELS 3 Zrotation Xrotation Yrotation
                                JOINT LeftHandRing2
                                {
                                    OFFSET 4.454682 0.000000 0.000000
                                    CHANNELS 3 Zrotation Xrotation Yrotation
                                    JOINT LeftHandRing3
                                    {
                                        OFFSET 2.227341 0.000000 0.000000
                                        CHANNELS 3 Zrotation Xrotation Yrotation
                                        End Site
                                        {
                                            OFFSET 1.984419 0.000000 0.000000
                                        }
                                    }
                                }
                            }
                            JOINT LeftHandPinky1
                            {
                                OFFSET 6.740750 0.000000 -2.949078
                                CHANNELS 3 Zrotation Xrotation Yrotation
                                JOINT LeftHandPinky2
                                {
                                    OFFSET 3.563746 0.000000 0.000000
                                    CHANNELS 3 Zrotation Xrotation Yrotation
                                    JOINT LeftHandPinky3
                                    {
                                        OFFSET 1.781873 0.000000 0.000000
                                        CHANNELS 3 Zrotation Xrotation Yrotation
                                        End Site
                                        {
                                            OFFSET 1.587536 0.000000 0.000000
                                        }
                                    }
                                }
                            }
                        }
                    }
                }
            }
            JOINT RightShoulder
            {
                OFFSET -3.506995 17.989975 0.023592
                CHANNELS 3 Zrotation Xrotation Yrotation
                JOINT RightArm
                {
                    OFFSET -12.560995 0.000000 0.000000
                    CHANNELS 3 Zrotation Xrotation Yrotation
                    JOINT RightForeArm
                    {
                        OFFSET -22.903347 0.000000 0.000000
                        CHANNELS 3 Zrotation Xrotation Yrotation
                        JOINT RightHand
                        {
                            OFFSET -21.865294 0.000000 0.000000
                            CHANNELS 3 Zrotation Xrotation Yrotation
                            JOINT RightHandThumb1
                            {
                                OFFSET -1.853706 -2.106484 2.949078
                                CHANNELS 3 Zrotation Xrotation Yrotation
                                JOINT RightHandThumb2
                                {
                                    OFFSET -2.049154 0.000000 1.336405
                                    CHANNELS 3 Zrotation Xrotation Yrotation
                                    JOINT RightHandThumb3
                                    {
                                        OFFSET -2.672809 0.000000 0.000000
                                        CHANNELS 3 Zrotation Xrotation Yrotation
                                        End Site
                                        {
                                            OFFSET -2.381303 0.000000 0.000000
                                        }
                                    }
                                }
                            }
                            JOINT RightHandIndex1
                            {
                                OFFSET -7.583345 0.000000 2.949078
                                CHANNELS 3 Zrotation Xrotation Yrotation
                                JOINT RightHandIndex2
                                {
                                    OFFSET -4.454682 0.000000 0.000000
                                    CHANNELS 3 Zrotation Xrotation Yrotation
                                    JOINT RightHandIndex3
                                    {
                                        OFFSET -2.227341 0.000000 0.000000
                                        CHANNELS 3 Zrotation Xrotation Yrotation
                                        End Site
                                        {
                                            OFFSET -1.984419 0.000000 0.000000
                                        }
                                    }
                                }
                            }
                            JOINT RightHandMiddle1
                            {
                                OFFSET -7.583345 0.000000 0.977409
                                CHANNELS 3 Zrotation Xrotation Yrotation
                                JOINT RightHandMiddle2
                                {
                                    OFFSET -4.900151 0.000000 0.000000
                                    CHANNELS 3 Zrotation Xrotation Yrotation
                                    JOINT RightHandMiddle3
                                    {
                                        OFFSET -2.672809 0.000000 0.000000
                                        CHANNELS 3 Zrotation Xrotation Yrotation
                                        End Site
                                        {
                                            OFFSET -2.381303 0.000000 0.000000
                                        }
                                    }
                                }
                            }
                            JOINT RightHandRing1
                            {
                                OFFSET -7.162047 0.000000 -0.977409
                                CHANNELS 3 Zrotation Xrotation Yrotation
                                JOINT RightHandRing2
                                {
                                    OFFSET -4.454682 0.000000 0.000000
                                    CHANNELS 3 Zrotation Xrotation Yrotation
                                    JOINT RightHandRing3
                                    {
                                        OFFSET -2.227341 0.000000 0.000000
                                        CHANNELS 3 Zrotation Xrotation Yrotation
                                        End Site
                                        {
                                            OFFSET -1.984419 0.000000 0.000000
                                        }
                                    }
                                }
                            }
                            JOINT RightHandPinky1
                            {
                                OFFSET -6.740750 0.000000 -2.949078
                                CHANNELS 3 Zrotation Xrotation Yrotation
                                JOINT RightHandPinky2
                                {
                                    OFFSET -3.563746 0.000000 0.000000
                                    CHANNELS 3 Zrotation Xrotation Yrotation
                                    JOINT RightHandPinky3
                                    {
                                        OFFSET -1.781873 0.000000 0.000000
                                        CHANNELS 3 Zrotation Xrotation Yrotation
                                        End Site
                                        {
                                            OFFSET -1.587536 0.000000 0.000000
                                        }
                                    }
                                }
                            }
                        }
                    }
                }
            }
        }
    }
    JOINT LeftUpLeg
    {
        OFFSET 8.909365 0.000000 0.000000
        CHANNELS 3 Zrotation Xrotation Yrotation
        JOINT LeftLeg
        {
            OFFSET -0.000000 -38.765560 0.000000
            CHANNELS 3 Zrotation Xrotation Yrotation
            JOINT LeftFoot
            {
                OFFSET -0.000000 -35.244961 0.000000
                CHANNELS 3 Zrotation Xrotation Yrotation
                JOINT LeftToeBase
                {
                    OFFSET -0.000000 -5.791087 13.364048
                    CHANNELS 3 Zrotation Xrotation Yrotation
                    End Site
                    {
                        OFFSET -0.000000 0.000000 3.563746
                    }
                }
            }
        }
    }
    JOINT RightUpLeg
    {
        OFFSET -8.909365 0.000000 0.000000
        CHANNELS 3 Zrotation Xrotation Yrotation
        JOINT RightLeg
        {
            OFFSET -0.000000 -38.765560 0.000000
            CHANNELS 3 Zrotation Xrotation Yrotation
            JOINT RightFoot
            {
                OFFSET -0.000000 -35.244961 0.000000
                CHANNELS 3 Zrotation Xrotation Yrotation
                JOINT RightToeBase
                {
                    OFFSET -0.000000 -5.791087 13.364048
                    CHANNELS 3 Zrotation Xrotation Yrotation
                    End Site
                    {
                        OFFSET -0.000000 0.000000 3.563746
                    }
                }
            }
        }
    }
}
MOTION
Frames:    4
Frame Time:    0.008333
-6.531376    79.071571    113.711510    0.181022    -7.247765    -27.997555    7.225818    -7.490304    1.608472    -9.692875    7.134709    0.981208    -1.531748    23.093399    13.618690    -2.804848    1.813218    13.949299    2.985531    7.069592    -8.740853    -87.191681    33.526188    7.013112    2.927157    15.344725    6.654255    1.901363    -25.214935    1.061981    0.455202    4.634335    6.308418    -0.000000    0.000000    6.829705    -0.000000    0.000000    13.659410    -18.502399    5.831832    -16.890125    -38.737980    0.000000    0.000000    -19.368990    0.000000    0.000000    -29.544235    1.966848    -7.373471    -59.218357    0.000000    0.000000    -29.609184    0.000000    0.000000    -39.814667    -3.589220    1.243583    -79.698723    0.000000    0.000000    -39.849373    0.000000    0.000000    -49.544838    -10.768826    9.052816    -100.799728    0.000000    0.000000    -50.399860    0.000000    0.000000    -13.468495    -12.638668    3.125858    28.441252    67.993721    67.721458    -69.596985    -18.310877    53.370953    13.128596    -27.914286    4.506853    0.547110    -1.575690    2.838814    0.000000    0.000000    0.000000    0.000000    0.000000    0.000000    19.929482    1.492684    4.109346    39.966076    0.000000    -0.000000    19.983036    0.000000    -0.000000    29.545532    0.114883    1.306123    59.093014    0.000000    -0.000000    29.546507    0.000000    -0.000000    39.086929    -1.710164    -1.228727    78.219955    0.000000    -0.000000    39.109978    0.000000    -0.000000    48.841267    -4.001424    -3.490727    97.926483    0.000000    -0.000000    48.963249    0.000000    -0.000000    8.632488    10.598691    8.518593    -1.027510    33.155834    5.409696    -15.351484    -12.409450    1.856092    0.244770    -4.722563    -1.298927    -15.605052    -10.799451    6.643581    -4.742227    27.656647    11.167978    17.943171    -13.732226    16.981283    -0.092881    0.423704    0.187933    
-6.576182    78.861267    113.757324    0.005530    -8.051236    -27.181267    7.176423    -7.738057    1.135979    -10.309951    8.121156    0.948304    -1.164165    23.469406    13.532242    -2.811487    1.471251    13.972296    2.918279    6.713863    -10.276913    -85.880058    33.865749    6.171777    2.647515    14.962207    7.184809    2.348055    -25.268244    1.589470    0.497078    4.658988    6.389883    -0.000000    0.000000    6.911333    -0.000000    0.000000    13.822666    -18.427826    5.656701    -16.479578    -38.495262    0.000000    0.000000    -19.247631    0.000000    0.000000    -29.655745    1.888299    -7.199829    -59.429455    0.000000    0.000000    -29.714724    0.000000    0.000000    -40.148819    -3.559215    1.184816    -80.363647    0.000000    0.000000    -40.181824    0.000000    0.000000    -50.151901    -10.619441    8.743725    -101.932190    0.000000    0.000000    -50.966095    0.000000    0.000000    -13.900850    -13.164403    3.587317    23.090378    67.264740    73.060883    -68.753029    -14.739397    52.472500    14.366493    -27.348068    4.222156    0.738201    -1.771517    3.278603    0.000000    0.000000    0.000000    0.000000    0.000000    0.000000    20.512102    1.692111    4.512830    41.157562    0.000000    -0.000000    20.578781    0.000000    -0.000000    30.051039    0.326881    1.655933    60.107166    0.000000    -0.000000    30.053581    0.000000    -0.000000    39.513294    -1.491146    -0.936138    79.056763    0.000000    -0.000000    39.528378    0.000000    -0.000000    49.182617    -3.781856    -3.260517    98.580582    0.000000    -0.000000    49.290295    0.000000    -0.000000    8.707279    11.077267    8.644468    -0.931310    33.629551    5.384532    -15.552779    -13.029784    1.658997    0.242433    -4.450916    -1.248533    -15.665376    -10.235735    6.779680    -4.911112    28.923864    11.393354    17.835344    -14.707257    16.403564    -0.100692    0.421956    0.200000    
-6.613954    78.632828    113.796043    -0.155221    -8.906422    -26.260519    7.032179    -7.991803    0.678174    -10.875923    9.227434    0.940905    -0.780942    23.867786    13.402820    -2.758613    0.964382    13.946665    2.865205    6.331251    -11.939046    -84.475891    34.309856    5.259716    2.382070    14.540781    7.658418    2.779011    -25.317961    2.048473    0.521127    4.693395    6.463069    -0.000000    0.000000    6.987365    -0.000000    0.000000    13.974731    -18.405079    5.513372    -16.105330    -38.371376    0.000000    0.000000    -19.185688    0.000000    0.000000    -29.821022    1.823393    -7.042249    -59.750282    0.000000    0.000000    -29.875141    0.000000    0.000000    -40.533207    -3.535506    1.126933    -81.129181    0.000000    0.000000    -40.564590    0.000000    0.000000    -50.800217    -10.496951    8.451394    -103.155922    0.000000    0.000000    -51.577961    0.000000    0.000000    -14.281754    -13.686769    4.056115    18.370083    66.413574    77.802330    -67.697426    -11.096059    51.596626    15.565079    -26.906807    3.963410    0.936830    -1.920675    3.652646    0.000000    0.000000    0.000000    0.000000    0.000000    0.000000    21.038647    1.875859    4.864353    42.236660    0.000000    -0.000000    21.118328    0.000000    -0.000000    30.508497    0.515537    1.956155    61.026993    0.000000    -0.000000    30.513494    0.000000    -0.000000    39.899456    -1.302850    -0.689294    79.817314    0.000000    -0.000000    39.908661    0.000000    -0.000000    49.492004    -3.600012    -3.070603    99.177048    0.000000    -0.000000    49.588520    0.000000    -0.000000    8.780431    11.521198    8.708821    -0.808165    34.190777    5.282312    -15.708758    -13.728497    1.572576    0.241638    -4.215619    -1.208706    -15.773720    -9.611064    6.723977    -5.106618    30.213776    11.589986    17.763891    -15.656977    15.968150    -0.111331    0.419053    0.216384    
-6.642858    78.385284    113.827324    -0.291199    -9.796995    -25.231543    6.794303    -8.240943    0.228482    -11.390705    10.415885    0.952914    -0.373376    24.283197    13.233402    -2.651883    0.319169    13.881216    2.825339    5.914974    -13.689007    -82.987366    34.838211    4.302231    2.149379    14.068666    8.054574    3.199358    -25.396357    2.450906    0.525400    4.737908    6.526217    -0.000000    0.000000    7.057919    -0.000000    0.000000    14.115840    -18.453388    5.405925    -15.766014    -38.404861    0.000000    0.000000    -19.202433    0.000000    0.000000    -30.045582    1.771401    -6.896267    -60.191719    0.000000    0.000000    -30.095865    0.000000    0.000000    -40.959045    -3.522384    1.077607    -81.978600    0.000000    0.000000    -40.989300    0.000000    0.000000    -51.465839    -10.408307    8.187570    -104.425659    0.000000    0.000000    -52.212830    0.000000    0.000000    -14.620121    -14.192210    4.534184    14.252328    65.506340    81.988045    -66.375336    -7.482413    50.705231    16.711983    -26.419577    3.688047    1.151570    -2.021347    3.964112    0.000000    0.000000    0.000000    0.000000    0.000000    0.000000    21.517101    2.044286    5.170006    43.218811    0.000000    -0.000000    21.609404    0.000000    -0.000000    30.921095    0.683692    2.214322    61.858181    0.000000    -0.000000    30.929094    0.000000    -0.000000    40.243996    -1.139566    -0.479816    80.497566    0.000000    -0.000000    40.248787    0.000000    -0.000000    49.763237    -3.446964    -2.912434    99.701775    0.000000    -0.000000    49.850887    0.000000    -0.000000    8.851671    11.917828    8.713343    -0.659860    34.828663    5.096717    -15.820393    -14.510318    1.626882    0.243094    -4.021665    -1.181865    -15.929469    -8.933029    6.486720    -5.329725    31.510216    11.780923    17.727753    -16.586803    15.639242    -0.123485    0.415871    0.235117    
